<svg width="609" height="115" viewBox="0 0 609 115" fill="none" xmlns="http://www.w3.org/2000/svg">
<path d="M21.8287 90.2128C15.8448 90.2128 10.315 86.8754 7.73053 81.7059C5.97263 78.0418 5.82129 75.6963 5.82129 69.92V34.2122C5.82129 28.9844 6.65949 23.0798 12.8412 18.9839C15.4956 17.1635 18.7203 16.6151 20.42 16.44C21.6191 16.3117 23.8078 16.23 26.3689 16.23H38.5927C45.6011 16.23 48.1739 16.4167 51.8643 18.6338C56.2765 21.2244 59.0473 26.1371 59.0473 31.4233C59.0473 35.8459 57.0682 40.3736 53.89 43.2676L53.7735 43.3726C53.0401 44.0027 52.3067 44.5162 51.55 44.9479C53.2147 47.1651 54.1344 49.8723 54.1344 52.7546C54.1344 60.8647 48.3252 66.1042 39.3262 66.1042H37.836V70.0017C37.836 76.3614 37.6265 78.917 35.3098 82.7095C32.4808 87.3305 27.3119 90.2128 21.8287 90.2128Z" fill="#9CC43F"/>
<path d="M38.5923 22.0652C45.263 22.0652 46.5553 22.2519 48.872 23.6406C51.5612 25.2159 53.226 28.1799 53.226 31.4239C53.226 34.2012 51.9337 37.1768 49.9896 38.9389C48.0454 40.6076 46.0081 41.1677 42.306 41.1677H32.0264V45.427H38.3246C41.8404 45.427 43.3305 45.707 44.9021 46.6289C47.0326 47.9242 48.3248 50.153 48.3248 52.7436C48.3248 57.563 45.1815 60.2585 39.3374 60.2585H32.0264V69.9907C32.0264 76.012 31.8401 77.2256 30.3616 79.6294C28.6037 82.5001 25.3557 84.3555 21.8399 84.3555C18.0447 84.3555 14.5289 82.22 12.9456 79.0693C11.8396 76.7471 11.6534 75.5452 11.6534 69.8856V34.2129C11.6534 28.74 12.8525 25.9627 16.1005 23.8273C17.2996 22.9987 19.1506 22.4386 21.0133 22.2519C21.8515 22.1586 23.7026 22.0652 26.3801 22.0652H38.604H38.5923ZM38.604 10.396H26.3801C24.7736 10.396 21.7933 10.431 19.7909 10.641C17.5324 10.8744 13.2948 11.6329 9.61606 14.1301C1.00119 19.8597 0 28.3316 0 34.2129V69.909C0 76.257 0.232834 79.5244 2.44476 84.1454L2.49133 84.2271L2.5379 84.3088C6.10026 91.4387 13.6674 96.0363 21.8399 96.0363C29.3255 96.0363 36.392 92.0922 40.2804 85.7441C43.2374 80.9247 43.6215 77.2022 43.6565 71.5777C53.4472 69.9323 59.9549 62.6507 59.9549 52.7552C59.9549 50.5848 59.594 48.4726 58.9071 46.5005C62.6558 42.533 64.8677 37.0018 64.8677 31.4356C64.8677 24.1073 61.0143 17.2808 54.8092 13.605C49.6869 10.536 45.7171 10.396 38.5923 10.396H38.604Z" fill="#9CC43E"/>
<path d="M69.3394 97.4374C64.869 97.4374 60.3054 95.4537 57.4299 92.2796C54.0305 88.5572 53.332 84.6013 53.332 79.8286V41.5302C53.332 35.5906 53.949 32.0782 57.4066 28.274C60.352 24.9133 64.6594 22.9995 69.2463 22.9995C73.8331 22.9995 78.1755 24.8783 81.1441 28.1573C84.6715 32.1598 85.3468 36.0924 85.3468 41.5419V79.8286C85.3468 83.4344 84.8811 88.0904 81.2372 92.1046C78.2337 95.3953 73.6701 97.4374 69.3394 97.4374Z" fill="#9CC43F"/>
<path d="M69.2458 28.8347C72.2028 28.8347 74.9852 30.0367 76.8362 32.0788C78.8735 34.401 79.5255 36.5248 79.5255 41.5308V79.8175C79.5255 83.715 78.7804 86.1189 76.9294 88.161C74.9852 90.2965 72.0166 91.5918 69.339 91.5918C66.6614 91.5918 63.5065 90.2965 61.7486 88.3477C59.8044 86.2123 59.1525 84.0885 59.1525 79.8175V41.5308C59.1525 36.338 59.6181 34.4826 61.7486 32.1721C63.5996 30.0367 66.2888 28.8347 69.2458 28.8347V28.8347ZM69.2458 17.1655C63.0059 17.1655 57.1268 19.7911 53.0755 24.3888C47.9415 30.0483 47.5107 35.7312 47.5107 41.5425V79.8292C47.5107 84.882 48.186 90.7866 53.157 96.2361C57.0686 100.565 63.2853 103.273 69.339 103.273C75.3927 103.273 81.3998 100.565 85.521 96.0494C90.5735 90.4832 91.1672 84.1235 91.1672 79.8292V41.5308C91.1672 35.0428 90.2126 29.6399 85.5792 24.3654L85.521 24.2954L85.4628 24.2254C81.3882 19.7444 75.4858 17.1655 69.2575 17.1655H69.2458Z" fill="#9CC43E"/>
<path d="M129.617 109.177C124.437 109.177 119.815 106.796 116.614 102.467L112.935 97.6358L109.233 102.455C105.577 107.065 101.479 109.177 96.2872 109.177C87.6141 109.177 80.2798 101.872 80.2798 93.2365C80.2798 89.4324 81.6069 85.5932 83.9236 82.6876L92.783 70.9833L86.8341 63.1066C83.6675 58.8474 81.5837 55.1365 81.5837 50.7723C81.5837 42.0787 88.9994 34.7388 97.7773 34.7388C101.328 34.7388 106.497 35.929 110.956 41.6003L113.086 44.4242L114.623 42.4988C117.557 38.6946 121.503 34.7388 128.151 34.7388C136.928 34.7388 144.344 42.0437 144.344 50.6789C144.344 54.2264 142.866 58.0188 139.955 61.9514L133.122 71.0067L142.074 82.9793C144.251 85.8966 145.462 89.5374 145.462 93.2482C145.462 102.035 138.36 109.188 129.641 109.188L129.617 109.177Z" fill="#9CC43F"/>
<path d="M128.139 40.574C133.786 40.574 138.512 45.2067 138.512 50.6795C138.512 52.9084 137.406 55.5923 135.276 58.4629L125.834 70.984L137.406 86.469C138.792 88.3244 139.63 90.7283 139.63 93.2372C139.63 98.8034 135.183 103.343 129.63 103.343C126.393 103.343 123.424 101.861 121.294 98.9901L112.959 88.0444L104.623 98.8967C102.12 102.047 99.7103 103.343 96.2876 103.343C90.7345 103.343 86.1011 98.71 86.1011 93.2372C86.1011 90.8216 86.9393 88.2311 88.511 86.2823L100.083 70.984L91.468 59.5831C88.511 55.5923 87.3934 53.1884 87.3934 50.7729C87.3934 45.3 92.213 40.574 97.7661 40.574C101.096 40.574 103.971 42.1493 106.381 45.2067L112.959 53.9236L119.164 46.1402C122.307 42.056 124.717 40.574 128.151 40.574H128.139ZM128.151 28.9048C121.317 28.9048 116.602 31.8688 113.156 35.3229C107.825 30.095 101.98 28.9048 97.7778 28.9048C85.845 28.9048 75.7633 38.917 75.7633 50.7729C75.7633 57.0976 78.825 62.092 82.1429 66.5497L82.1662 66.5847L82.1895 66.6197L85.4725 70.9723L79.314 79.1057C76.2173 83.0149 74.4478 88.1494 74.4478 93.2255C74.4478 105.233 84.2384 115 96.276 115C102.888 115 108.337 112.433 112.889 107.147C117.138 112.153 123.145 115 129.606 115C141.539 115 151.248 105.233 151.248 93.2255C151.248 88.2661 149.63 83.365 146.696 79.4441L140.386 71.0073L144.543 65.4994L144.578 65.4644L144.612 65.4294C148.291 60.47 150.154 55.5106 150.154 50.6795C150.154 38.6719 140.282 28.9048 128.139 28.9048H128.151Z" fill="#9CC43E"/>
<path d="M156.477 97.4374C152.006 97.4374 147.443 95.4537 144.567 92.2796C141.168 88.5572 140.469 84.6013 140.469 79.8286V41.5302C140.469 35.5906 141.086 32.0782 144.544 28.274C147.489 24.9133 151.797 22.9995 156.383 22.9995C160.97 22.9995 165.313 24.8783 168.281 28.1573C171.809 32.1598 172.484 36.0924 172.484 41.5419V79.8286C172.484 83.4344 172.018 88.0904 168.374 92.1046C165.371 95.3953 160.807 97.4374 156.477 97.4374Z" fill="#9CC43F"/>
<path d="M156.383 28.8347C159.34 28.8347 162.122 30.0367 163.973 32.0788C166.011 34.401 166.663 36.5248 166.663 41.5308V79.8175C166.663 83.715 165.918 86.1189 164.067 88.161C162.122 90.2965 159.154 91.5918 156.476 91.5918C153.799 91.5918 150.644 90.2965 148.886 88.3477C146.942 86.2123 146.29 84.0885 146.29 79.8175V41.5308C146.29 36.338 146.755 34.4826 148.886 32.1721C150.737 30.0367 153.426 28.8347 156.383 28.8347V28.8347ZM156.383 17.1655C150.143 17.1655 144.264 19.7911 140.213 24.3888C135.079 30.0483 134.648 35.7312 134.648 41.5425V79.8292C134.648 84.882 135.323 90.7866 140.294 96.2361C144.206 100.565 150.422 103.273 156.476 103.273C162.53 103.273 168.537 100.565 172.658 96.0494C177.711 90.4832 178.304 84.1235 178.304 79.8292V41.5308C178.304 35.0428 177.35 29.6399 172.716 24.3654L172.658 24.2954L172.6 24.2254C168.525 19.7444 162.623 17.1655 156.395 17.1655H156.383Z" fill="#9CC43E"/>
<path d="M220.833 90.2157C215.78 90.2157 211.391 87.9869 208.155 83.7626L202.287 76.236C201.938 79.1066 201.03 81.6038 198.9 84.2994L198.795 84.4278C195.71 88.1036 191.216 90.2157 186.466 90.2157C181.716 90.2157 176.757 87.8818 173.719 83.9727L173.59 83.7976C170.866 80.0051 170.366 76.7377 170.366 71.6733V32.5464C170.366 22.826 177.293 15.7661 186.839 15.7661C191.612 15.7661 195.57 17.8082 198.958 22.0091L205.07 29.5241C205.407 27.0852 206.141 24.9848 207.666 22.7793C210.53 18.45 215.571 15.7661 220.821 15.7661C225.513 15.7661 229.971 17.8782 233.056 21.554L233.161 21.6824C235.769 24.9731 236.828 28.3922 236.828 33.4683V71.2999C236.828 76.8078 236.304 80.3085 233.417 84.101C230.472 87.9285 225.769 90.204 220.821 90.204L220.833 90.2157Z" fill="#9CC43F"/>
<path d="M220.832 21.6116C223.882 21.6116 226.665 23.0002 228.609 25.3224C230.367 27.5512 231.019 29.675 231.019 33.4792V71.2991C231.019 76.2118 230.553 78.254 228.795 80.5761C226.944 82.9917 223.975 84.3803 220.832 84.3803C217.689 84.3803 214.907 82.9917 212.776 80.2027L196.664 59.5249V72.501C196.664 76.5853 196.105 78.429 194.347 80.6578C192.403 82.98 189.528 84.3686 186.477 84.3686C183.427 84.3686 180.272 82.8866 178.328 80.3777C176.663 78.0556 176.198 76.2002 176.198 71.6608V32.5456C176.198 25.9642 180.459 21.5999 186.85 21.5999C189.819 21.5999 192.124 22.8019 194.44 25.6842L210.646 45.6152V34.121C210.646 30.0368 211.018 28.193 212.497 26.0576C214.255 23.3736 217.491 21.6116 220.832 21.6116V21.6116ZM220.832 9.94238C214.092 9.94238 207.619 13.1864 203.591 18.4842L203.463 18.3209C198.992 12.778 193.393 9.94238 186.838 9.94238C173.928 9.94238 164.544 19.4528 164.544 32.5573V71.6725C164.544 77.5538 165.266 82.1981 168.875 87.2159L169.003 87.3909L169.131 87.566C173.264 92.8755 179.737 96.0495 186.466 96.0495C193.195 96.0495 199.051 93.1789 203.253 88.1845L203.358 88.0561L203.463 87.9277C203.556 87.811 203.649 87.6943 203.73 87.5777C208.038 93.0505 214.092 96.0495 220.821 96.0495C227.549 96.0495 233.987 92.9222 238.004 87.6944L238.027 87.671L238.05 87.6477C242.288 82.0581 242.649 76.5152 242.649 71.3108V33.4792C242.649 27.0494 241.17 22.4401 237.724 18.0758L237.62 17.9475L237.515 17.8191C233.324 12.8247 227.235 9.95405 220.832 9.95405V9.94238Z" fill="#9CC43E"/>
<path d="M271.588 100.355C250.353 100.355 233.077 83.143 233.077 61.9751C233.077 40.8071 250.307 23.7817 271.495 23.7817C278.503 23.7817 285.721 25.8239 291.833 29.5463C299.447 34.354 301.03 40.0953 301.03 44.0862C301.03 48.077 299.563 51.6945 297.142 54.4951C297.782 55.0202 298.399 55.6387 299.004 56.3505C301.845 59.7696 303.102 63.8538 302.974 69.245L302.881 74.4961V74.8462C302.683 79.9107 302.66 80.6925 301.973 82.898C300.448 87.764 295.686 92.5718 288.899 96.0725C283.463 98.8965 277.642 100.343 271.6 100.343L271.588 100.355Z" fill="#9CC43F"/>
<path d="M271.496 29.6169C277.515 29.6169 283.626 31.3789 288.819 34.5296C293.08 37.2135 295.21 40.3759 295.21 44.075C295.21 49.6412 290.483 54.2739 284.837 54.2739C283.918 54.2739 282.707 54.0872 282.148 53.8071L277.608 51.3916C275.384 50.3764 273.161 49.7229 271.123 49.7229C264.825 49.7229 259.365 55.3825 259.365 61.8706C259.365 68.3587 264.825 74.0182 271.496 74.0182C274.092 74.0182 275.57 73.4581 278.539 71.696H275.57C270.11 71.696 266.862 68.9188 266.862 64.2744C266.862 59.6301 270.169 56.8528 276.444 56.8528C276.548 56.8528 276.665 56.8528 276.77 56.8528L283.44 56.9462C290.565 57.1329 292.509 57.693 294.546 60.0968C296.397 62.3257 297.236 65.1029 297.143 69.0938L297.049 74.38C296.863 79.4794 296.863 79.6661 296.397 81.1481C295.373 84.3922 291.578 88.103 286.211 90.8802C281.578 93.2958 276.676 94.4977 271.577 94.4977C253.521 94.4977 238.887 79.9462 238.887 61.9523C238.887 43.9583 253.521 29.5935 271.484 29.5935L271.496 29.6169ZM271.484 17.9243C247.095 17.9243 227.246 37.6803 227.246 61.9523C227.246 86.2242 247.13 106.167 271.577 106.167C278.562 106.167 285.291 104.51 291.578 101.242C296.339 98.7803 304.78 93.3191 307.504 84.6605C308.435 81.6849 308.482 80.4129 308.668 75.0568V74.59L308.773 69.3272C308.912 63.1892 307.504 58.1248 304.465 53.9005C305.979 50.9365 306.828 47.5991 306.828 44.0517C306.828 38.5905 304.779 30.7955 295 24.6224L294.919 24.5758L294.837 24.5291C287.829 20.2698 279.54 17.9243 271.484 17.9243V17.9243Z" fill="#9CC43E"/>
<path d="M379.195 90.2143C371.93 90.2143 367.949 86.2934 365.271 81.6841H353.536C351.033 86.0017 346.901 90.2143 339.38 90.2143C330.451 90.2143 323.466 83.1661 323.466 74.1808C323.466 71.6019 324.106 68.8713 325.329 66.3041L344.677 25.2401C347.378 19.4172 352.978 15.7764 359.299 15.7764C365.621 15.7764 371.255 19.3355 374.096 25.3101L393.502 66.7708C394.69 69.0697 395.307 71.6602 395.307 74.2741C395.307 83.061 388.089 90.2143 379.206 90.2143H379.195Z" fill="#9CC43F"/>
<path d="M359.275 21.612C363.443 21.612 366.959 23.9342 368.81 27.82L388.251 69.3507C389.09 70.9261 389.45 72.6881 389.45 74.2635C389.45 79.8297 384.817 84.369 379.171 84.369C374.444 84.369 371.674 82.1402 368.798 75.8388H349.904C347.307 81.8601 344.257 84.369 339.344 84.369C333.698 84.369 329.251 79.923 329.251 74.1701C329.251 72.4081 329.717 70.5527 330.543 68.7906L349.892 27.715C351.65 23.9108 355.166 21.6003 359.24 21.6003L359.275 21.612ZM356.097 61.1006H362.395L359.252 53.679L356.109 61.1006H356.097ZM359.252 9.9311C350.66 9.9311 343.047 14.8438 339.356 22.7672L320.019 63.8079C318.448 67.1336 317.609 70.7277 317.609 74.1701C317.609 86.4345 327.156 96.0382 339.344 96.0382C346.481 96.0382 352.243 93.1793 356.563 87.508H362.127C365.55 92.094 370.765 96.0382 379.171 96.0382C391.255 96.0382 401.092 86.2711 401.092 74.2635C401.092 70.751 400.266 67.2736 398.682 64.1813L379.334 22.8489V22.8139L379.299 22.7789C375.527 14.8438 367.843 9.91943 359.252 9.91943V9.9311Z" fill="#9CC43E"/>
<path d="M434.841 89.7485C429.637 89.7485 425.656 88.9199 421.861 84.8124C419.998 82.8053 418.566 80.0513 417.949 77.2974L417.891 77.029L417.856 76.749C417.716 75.6404 417.623 74.6018 417.623 70.5643V32.546C417.763 23.2106 424.759 16.2324 433.91 16.2324H442.618C449.37 16.2324 452.071 16.4191 455.179 17.1076C466.472 19.8149 474.004 29.547 474.004 41.3446C474.004 44.5419 473.55 47.0275 472.351 49.8281C476.204 54.5424 477.892 59.4318 477.892 65.5348C477.892 72.5714 475.087 78.8377 469.778 83.6688C464.225 88.8499 459.498 89.7251 451.046 89.7251H434.841V89.7485Z" fill="#9CC43F"/>
<path d="M442.629 22.0666C449.207 22.0666 451.431 22.2533 453.934 22.8135C462.455 24.8556 468.195 32.2655 468.195 41.3558C468.195 44.8799 467.543 47.0154 465.319 50.8079C470.232 55.5339 472.083 59.6182 472.083 65.5461C472.083 70.9256 469.952 75.6517 465.878 79.3625C461.896 83.0733 459.021 83.9018 451.058 83.9018H434.853C430.406 83.9018 428.368 83.2483 426.145 80.8445C424.946 79.5492 424.014 77.6938 423.642 76.0251C423.549 75.2782 423.455 74.5431 423.455 70.5522V32.5456C423.549 26.4309 427.903 22.0666 433.921 22.0666H442.629V22.0666ZM443.747 45.9885H446.157C449.032 45.9885 449.952 45.335 449.952 43.6663C449.952 41.9043 448.846 41.2508 445.971 41.2508H443.747V45.9768V45.9885ZM443.747 64.8926H447.17C450.685 64.8926 451.617 64.3325 451.617 62.4771C451.617 60.6217 450.325 59.8865 447.077 59.8865H443.747V64.8926ZM442.629 10.3857H433.921C421.511 10.3857 412 19.8261 411.814 32.3589V70.5639C411.814 74.9398 411.919 76.1418 412.081 77.472L412.151 78.0205L412.268 78.569C413.094 82.3031 415.038 86.0373 417.611 88.8029C423.106 94.7658 429.137 95.5827 434.841 95.5827H451.046C460.651 95.5827 466.798 94.4041 473.736 87.9627C480.255 81.9997 483.701 74.2513 483.701 65.5578C483.701 59.2331 482.176 53.8652 478.858 48.8708C479.475 46.642 479.813 44.2265 479.813 41.3675C479.813 26.8043 470.488 14.7967 456.611 11.471L456.518 11.4476L456.425 11.4243C452.828 10.6308 449.859 10.4091 442.606 10.4091L442.629 10.3857Z" fill="#9CC43E"/>
<path d="M505.88 81.3815C495.822 81.3815 486.217 76.4688 480.175 68.2536C475.647 62.0573 474.04 56.5144 474.04 47.0857V25.2993C474.04 19.313 474.366 16.0689 477.358 12.1247L477.463 11.9964C480.524 8.20386 485.344 5.84668 490.047 5.84668C494.378 5.84668 498.755 7.73709 501.759 10.8994C504.285 13.5484 505.391 16.4073 505.845 19.2663C506.218 16.489 507.114 14.3302 509.186 11.833C512.237 8.05216 516.754 5.84668 521.527 5.84668C526.3 5.84668 530.98 8.0755 533.96 11.6579C537.173 15.4854 537.72 18.9162 537.72 25.1242V47.0973C537.72 56.8528 535.194 64.2394 529.769 70.3541C523.68 77.3556 514.961 81.3932 505.88 81.3932V81.3815Z" fill="#9CC43F"/>
<path d="M521.526 11.6692C524.495 11.6692 527.638 13.1512 529.489 15.38C531.433 17.7022 531.899 19.5576 531.899 25.1121V47.0853C531.899 55.4288 529.862 61.4501 525.415 66.4678C520.42 72.2208 513.191 75.5582 505.88 75.5582C497.637 75.5582 489.768 71.4739 484.855 64.7991C481.06 59.6063 479.849 55.2537 479.849 47.0969V25.2989C479.849 19.4526 480.221 17.9706 481.979 15.6601C483.924 13.2446 487.078 11.6692 490.035 11.6692C492.818 11.6692 495.682 12.9645 497.533 14.9133C499.57 17.0487 500.315 19.3592 500.315 23.7235V48.1122C500.315 52.5581 502.352 55.2537 505.868 55.2537C509.384 55.2537 511.421 52.6632 511.421 48.3922V23.7235C511.421 19.1842 511.794 17.7956 513.645 15.5667C515.589 13.1512 518.465 11.6692 521.515 11.6692H521.526ZM521.515 0C515.612 0 510.001 2.45054 505.868 6.76814C501.805 2.53222 495.88 0 490.024 0C483.609 0 477.055 3.1857 472.91 8.32015L472.806 8.44851L472.701 8.58854C468.522 14.0964 468.196 18.9858 468.196 25.2989V47.0853C468.196 56.1523 469.406 63.4338 475.448 71.6956C482.596 81.4278 493.959 87.2157 505.857 87.2157C516.602 87.2157 526.893 82.4663 534.134 74.1695C540.456 67.028 543.517 58.171 543.517 47.0736V25.1121C543.517 19.0325 543.133 13.5363 538.372 7.86505C534.344 3.02233 527.871 0 521.503 0L521.515 0Z" fill="#9CC43E"/>
<path d="M571.806 91.3229C550.571 91.3229 533.295 74.1108 533.295 52.9428C533.295 31.7749 550.525 14.7495 571.713 14.7495C578.721 14.7495 585.939 16.7916 592.051 20.5141C599.664 25.3218 601.248 31.0631 601.248 35.0539C601.248 39.0448 599.781 42.6623 597.359 45.4629C598 45.988 598.617 46.6065 599.222 47.3183C602.063 50.7374 603.32 54.8216 603.192 60.2128L603.099 65.4639V65.814C602.901 70.8901 602.878 71.6603 602.179 73.8774C600.654 78.7435 595.892 83.5395 589.105 87.052C583.669 89.8759 577.848 91.3229 571.806 91.3229V91.3229Z" fill="#9CC43F"/>
<path d="M571.714 20.5851C577.733 20.5851 583.845 22.3472 589.037 25.4979C593.298 28.1818 595.428 31.3441 595.428 35.0433C595.428 40.6095 590.701 45.2422 585.055 45.2422C584.124 45.2422 582.925 45.0555 582.366 44.7754L577.826 42.3599C575.602 41.3447 573.379 40.6912 571.341 40.6912C565.043 40.6912 559.583 46.3508 559.583 52.8388C559.583 59.3269 565.043 64.9865 571.714 64.9865C574.31 64.9865 575.788 64.4264 578.757 62.6643H575.788C570.328 62.6643 567.08 59.887 567.08 55.2427C567.08 50.5983 570.387 47.8211 576.662 47.8211C576.766 47.8211 576.883 47.8211 576.988 47.8211L583.658 47.9144C590.783 48.1011 592.727 48.6613 594.764 51.0651C596.615 53.2939 597.454 56.0712 597.361 60.0621L597.267 65.3482C597.081 70.4477 597.081 70.6344 596.615 72.1164C595.591 75.3604 591.796 79.0712 586.429 81.8485C581.796 84.264 576.894 85.4659 571.795 85.4659C553.739 85.4659 539.105 70.9144 539.105 52.9205C539.105 34.9266 553.739 20.5618 571.702 20.5618L571.714 20.5851ZM571.702 8.89258C547.313 8.89258 527.464 28.6486 527.464 52.9205C527.464 77.1925 547.348 97.1352 571.795 97.1352C578.78 97.1352 585.509 95.4781 591.796 92.2107C596.557 89.7485 604.998 84.2874 607.722 75.6288C608.653 72.6532 608.7 71.3812 608.886 66.025V65.5583L608.991 60.3071C609.13 54.1691 607.722 49.1047 604.683 44.8804C606.197 41.9164 607.046 38.5791 607.046 35.0316C607.046 29.5704 604.998 21.7754 595.218 15.6024L595.137 15.5557L595.056 15.509C588.047 11.2498 579.758 8.90425 571.702 8.90425V8.89258Z" fill="#9CC43E"/>
<path d="M21.8279 87.2966C16.9384 87.2966 12.433 84.5894 10.3375 80.4001C8.89394 77.3778 8.73096 75.6041 8.73096 69.9095V34.2134C8.73096 27.7953 10.3957 24.0845 14.4936 21.3889C15.9954 20.3504 18.2772 19.5919 20.7103 19.3468C21.8163 19.2185 23.9467 19.1484 26.3682 19.1484H38.592C45.449 19.1484 47.3582 19.3351 50.3618 21.1439C53.9125 23.221 56.1244 27.1769 56.1244 31.4361C56.1244 35.0069 54.4713 38.7994 51.9218 41.1099C50.0125 42.7436 48.0451 43.5138 45.8681 43.8522C46.031 43.9338 46.194 44.0272 46.357 44.1206C49.4188 45.9876 51.2233 49.2083 51.2233 52.7558C51.2233 59.2905 46.7761 63.188 39.3254 63.188H34.9248V70.0029C34.9248 76.2926 34.7269 78.078 32.8293 81.1703C30.5243 84.9395 26.31 87.285 21.8279 87.285V87.2966Z" fill="#9CC43F"/>
<path d="M38.5914 22.0646C45.2621 22.0646 46.5543 22.2513 48.871 23.6399C51.5602 25.2153 53.225 28.1793 53.225 31.4233C53.225 34.2006 51.9328 37.1762 49.9886 38.9383C48.0444 40.607 46.0071 41.1671 42.3051 41.1671H32.0254V45.4264H38.3236C41.8394 45.4264 43.3295 45.7064 44.9012 46.6283C47.0316 47.9236 48.3238 50.1524 48.3238 52.743C48.3238 57.5623 45.1806 60.2579 39.3364 60.2579H32.0254V69.99C32.0254 76.0114 31.8392 77.225 30.3607 79.6288C28.6028 82.4994 25.3547 84.3549 21.8389 84.3549C18.0437 84.3549 14.5279 82.2194 12.9446 79.0687C11.8387 76.7465 11.6524 75.5446 11.6524 69.885V34.2122C11.6524 28.7394 12.8515 25.9621 16.0995 23.8266C17.2986 22.9981 19.1497 22.438 21.0124 22.2513C21.8506 22.1579 23.7016 22.0646 26.3792 22.0646H38.603H38.5914ZM38.603 16.23H26.3792C23.8413 16.23 21.6643 16.3117 20.3953 16.4517C18.6956 16.6267 15.4942 17.1869 12.8515 18.9839C6.66975 23.0798 5.83154 28.9844 5.83154 34.2122V69.9084C5.83154 75.6846 5.98288 78.0301 7.70586 81.6126L7.72914 81.6593L7.75243 81.7059C10.3369 86.8754 15.8667 90.2128 21.8506 90.2128C27.3338 90.2128 32.4911 87.3305 35.3317 82.6978C37.6484 78.9287 37.8579 76.3614 37.8579 70.0017V66.1042H39.3481C48.3355 66.1042 54.1563 60.8647 54.1563 52.7546C54.1563 49.8723 53.2366 47.1534 51.5719 44.9479C52.3169 44.5162 53.062 44.0027 53.7838 43.3726L53.842 43.3259L53.9002 43.2676C57.0784 40.3853 59.0575 35.8459 59.0575 31.435C59.0575 26.1605 56.2984 21.2477 51.8513 18.6338C48.1725 16.4284 45.588 16.2416 38.603 16.2416V16.23Z" fill="#FFDC00"/>
<path d="M69.3381 94.5202C65.7175 94.5202 61.899 92.8749 59.5823 90.3193C56.7999 87.262 56.2295 84.0413 56.2295 79.8287V41.5303C56.2295 36.1158 56.6952 33.3386 59.5939 30.1879C61.9339 27.4923 65.473 25.9053 69.2333 25.9053C72.9936 25.9053 76.5559 27.4339 78.9774 30.1062C81.5968 33.0818 82.4234 35.8474 82.4234 41.5303V79.817C82.4234 84.4497 81.4222 87.5421 79.0706 90.121C76.6025 92.8282 72.8655 94.5086 69.3264 94.5086L69.3381 94.5202Z" fill="#9CC43F"/>
<path d="M69.2443 28.8331C72.2013 28.8331 74.9837 30.035 76.8347 32.0771C78.872 34.3993 79.524 36.5231 79.524 41.5292V79.8159C79.524 83.7134 78.7789 86.1173 76.9279 88.1594C74.9837 90.2948 72.015 91.5901 69.3374 91.5901C66.6599 91.5901 63.5049 90.2948 61.747 88.3461C59.8029 86.2106 59.1509 84.0868 59.1509 79.8159V41.5292C59.1509 36.3364 59.6166 34.481 61.747 32.1705C63.5981 30.035 66.2873 28.8331 69.2443 28.8331V28.8331ZM69.2443 22.9985C64.6691 22.9985 60.35 24.9239 57.4047 28.273C53.9354 32.0771 53.3301 35.5896 53.3301 41.5292V79.8159C53.3301 84.5886 54.0286 88.5328 57.4512 92.2786C60.3151 95.441 64.8787 97.4247 69.3374 97.4247C73.7962 97.4247 78.2317 95.3826 81.2236 92.0919C84.8791 88.066 85.3448 83.4217 85.3448 79.8159V41.5292C85.3448 36.0797 84.6696 32.1588 81.212 28.2146L81.1771 28.1796L81.1422 28.1446C78.1735 24.8656 73.8312 22.9868 69.2443 22.9868V22.9985Z" fill="#FFDC00"/>
<path d="M129.618 106.259C125.38 106.259 121.596 104.299 118.942 100.728L112.935 92.8394L106.916 100.669C103.843 104.544 100.571 106.259 96.2757 106.259C89.1742 106.259 83.1787 100.296 83.1787 93.2362C83.1787 90.0505 84.2963 86.8531 86.2405 84.4493L96.427 70.983L89.1509 61.3442C86.2638 57.4584 84.4826 54.3544 84.4826 50.7719C84.4826 43.6654 90.5596 37.6557 97.7658 37.6557C101.992 37.6557 105.659 39.5928 108.662 43.397L113.016 49.1616L116.882 44.3072C119.955 40.328 123.063 37.644 128.139 37.644C135.334 37.644 141.422 43.607 141.422 50.6669C141.422 53.5725 140.142 56.7816 137.604 60.2006L129.466 70.983L139.734 84.706C141.539 87.1215 142.54 90.1438 142.54 93.2245C142.54 100.401 136.742 106.247 129.629 106.247L129.618 106.259Z" fill="#9CC43F"/>
<path d="M128.139 40.5734C133.785 40.5734 138.512 45.2061 138.512 50.6789C138.512 52.9077 137.406 55.5917 135.275 58.4623L125.834 70.9833L137.406 86.4684C138.791 88.3238 139.629 90.7277 139.629 93.2365C139.629 98.8027 135.182 103.342 129.629 103.342C126.393 103.342 123.424 101.86 121.294 98.9895L112.958 88.0437L104.623 98.8961C102.12 102.047 99.7098 103.342 96.2872 103.342C90.7341 103.342 86.1006 98.7094 86.1006 93.2365C86.1006 90.821 86.9389 88.2304 88.5105 86.2817L100.082 70.9833L91.4675 59.5825C88.5105 55.5917 87.3929 53.1878 87.3929 50.7723C87.3929 45.2994 92.2126 40.5734 97.7657 40.5734C101.095 40.5734 103.971 42.1487 106.381 45.2061L112.958 53.923L119.163 46.1396C122.306 42.0554 124.716 40.5734 128.151 40.5734H128.139ZM128.151 34.7388C121.526 34.7388 117.58 38.6713 114.588 42.5338L113.086 44.4242L111.026 41.6936L110.991 41.6469L110.956 41.6003C106.497 35.929 101.328 34.7388 97.7773 34.7388C88.9994 34.7388 81.5837 42.0787 81.5837 50.7723C81.5837 55.1366 83.6792 58.8474 86.8108 63.0599L92.783 70.9717L83.9236 82.6759C81.6069 85.5815 80.2798 89.4207 80.2798 93.2249C80.2798 101.86 87.6141 109.165 96.2872 109.165C101.479 109.165 105.577 107.053 109.175 102.514L109.198 102.479L109.221 102.444L112.923 97.6242L116.625 102.49C119.827 106.796 124.437 109.165 129.606 109.165C138.325 109.165 145.427 102.012 145.427 93.2249C145.427 89.5141 144.228 85.8733 142.039 82.956L133.098 70.995L139.897 61.9864C142.842 58.0188 144.321 54.2264 144.321 50.6789C144.321 42.0437 136.905 34.7388 128.127 34.7388H128.151Z" fill="#FFDC00"/>
<path d="M156.477 94.5202C152.856 94.5202 149.038 92.8749 146.721 90.3193C143.939 87.262 143.368 84.0413 143.368 79.8287V41.5303C143.368 36.1158 143.834 33.3386 146.733 30.1879C149.073 27.4923 152.612 25.9053 156.372 25.9053C160.132 25.9053 163.695 27.4339 166.116 30.1062C168.735 33.0818 169.562 35.8474 169.562 41.5303V79.817C169.562 84.4497 168.561 87.5421 166.209 90.121C163.741 92.8282 160.004 94.5086 156.465 94.5086L156.477 94.5202Z" fill="#9CC43F"/>
<path d="M156.383 28.8331C159.34 28.8331 162.123 30.035 163.974 32.0771C166.011 34.3993 166.663 36.5231 166.663 41.5292V79.8159C166.663 83.7134 165.918 86.1173 164.067 88.1594C162.123 90.2948 159.154 91.5901 156.477 91.5901C153.799 91.5901 150.644 90.2948 148.886 88.3461C146.942 86.2106 146.29 84.0868 146.29 79.8159V41.5292C146.29 36.3364 146.756 34.481 148.886 32.1705C150.737 30.035 153.426 28.8331 156.383 28.8331V28.8331ZM156.383 22.9985C151.808 22.9985 147.489 24.9239 144.544 28.273C141.075 32.0771 140.469 35.5896 140.469 41.5292V79.8159C140.469 84.5886 141.168 88.5328 144.59 92.2786C147.454 95.441 152.018 97.4247 156.477 97.4247C160.935 97.4247 165.371 95.3826 168.363 92.0919C172.018 88.066 172.484 83.4217 172.484 79.8159V41.5292C172.484 36.0797 171.809 32.1588 168.351 28.2146L168.316 28.1796L168.281 28.1446C165.313 24.8656 160.97 22.9868 156.383 22.9868V22.9985Z" fill="#FFDC00"/>
<path d="M220.831 87.2971C216.71 87.2971 213.124 85.465 210.47 81.9876L199.573 68.0079V72.5122C199.573 77.1799 198.828 79.7004 196.628 82.4777C194.043 85.5584 190.365 87.2854 186.476 87.2854C182.588 87.2854 178.513 85.3717 176.034 82.1743C173.694 78.9186 173.286 76.1997 173.286 71.672V32.5452C173.286 24.3884 178.863 18.6821 186.849 18.6821C190.737 18.6821 193.869 20.3275 196.709 23.8516L207.734 37.4229V34.1205C207.734 29.9312 208.107 27.2707 210.109 24.3884C212.391 20.8993 216.523 18.6821 220.831 18.6821C224.661 18.6821 228.305 20.4092 230.831 23.4315C233.066 26.2671 233.928 29.0561 233.928 33.467V71.2986C233.928 76.258 233.509 79.1753 231.111 82.3377C228.724 85.4417 224.882 87.2854 220.831 87.2854V87.2971Z" fill="#9CC43F"/>
<path d="M220.832 21.6099C223.882 21.6099 226.664 22.9986 228.608 25.3208C230.366 27.5496 231.018 29.6734 231.018 33.4775V71.2975C231.018 76.2102 230.553 78.2523 228.795 80.5745C226.944 82.99 223.975 84.3786 220.832 84.3786C217.688 84.3786 214.906 82.99 212.776 80.2011L196.663 59.5232V72.4994C196.663 76.5836 196.105 78.4273 194.347 80.6562C192.403 82.9783 189.527 84.367 186.477 84.367C183.427 84.367 180.272 82.885 178.328 80.3761C176.663 78.0539 176.197 76.1985 176.197 71.6592V32.544C176.197 25.9626 180.458 21.5983 186.849 21.5983C189.818 21.5983 192.123 22.8002 194.44 25.6825L210.645 45.6135V34.1193C210.645 30.0351 211.018 28.1914 212.496 26.0559C214.254 23.372 217.491 21.6099 220.832 21.6099V21.6099ZM220.832 15.7753C215.581 15.7753 210.54 18.4593 207.677 22.7885C206.151 25.0057 205.418 27.1061 205.08 29.5333L198.957 21.995C195.581 17.8058 191.623 15.7637 186.849 15.7637C177.303 15.7637 170.376 22.8235 170.376 32.544V71.6709C170.376 76.7353 170.877 80.0027 173.601 83.7952L173.659 83.8885L173.729 83.9702C176.768 87.8794 181.529 90.2132 186.477 90.2132C191.425 90.2132 195.72 88.1011 198.806 84.4253L198.864 84.3553L198.91 84.2853C201.041 81.6014 201.949 79.1042 202.298 76.2219L208.189 83.7835C211.39 87.9728 215.779 90.2016 220.832 90.2016C225.884 90.2016 230.483 87.9261 233.405 84.1219C236.304 80.2944 236.839 76.8053 236.839 71.2858V33.4775C236.839 28.4014 235.78 24.994 233.172 21.6916L233.114 21.6216L233.056 21.5516C229.97 17.8758 225.512 15.7637 220.82 15.7637L220.832 15.7753Z" fill="#FFDC00"/>
<path d="M271.59 97.4385C251.962 97.4385 235.989 81.5333 235.989 61.9757C235.989 42.4181 251.915 26.6997 271.497 26.6997C277.981 26.6997 284.663 28.5901 290.321 32.0325C295.502 35.2999 298.109 39.3491 298.109 44.0752C298.109 48.8012 295.676 52.6404 292.056 55.0092C293.918 55.6043 295.385 56.5846 296.771 58.2299C299.122 61.0539 300.158 64.5313 300.054 69.1756L299.961 74.4501V74.7535C299.763 79.7946 299.751 80.2147 299.181 82.0468C297.9 86.1077 293.558 90.3903 287.55 93.506C282.533 96.1199 277.154 97.4502 271.59 97.4502V97.4385ZM271.124 52.652C266.409 52.652 262.276 56.9696 262.276 61.8824C262.276 64.1929 263.126 66.305 264.535 67.927C264.151 66.8185 263.953 65.6049 263.953 64.2862C263.953 57.8915 268.516 54.0407 276.176 53.9473C274.232 53.0838 272.544 52.6404 271.124 52.6404V52.652Z" fill="#9CC43F"/>
<path d="M271.496 29.6162C277.515 29.6162 283.627 31.3783 288.819 34.529C293.08 37.2129 295.21 40.3753 295.21 44.0744C295.21 49.6406 290.484 54.2733 284.838 54.2733C283.918 54.2733 282.707 54.0866 282.148 53.8065L277.608 51.391C275.385 50.3758 273.161 49.7223 271.124 49.7223C264.826 49.7223 259.366 55.3819 259.366 61.8699C259.366 68.358 264.826 74.0176 271.496 74.0176C274.092 74.0176 275.571 73.4575 278.539 71.6954H275.571C270.111 71.6954 266.863 68.9182 266.863 64.2738C266.863 59.6295 270.169 56.8522 276.444 56.8522C276.549 56.8522 276.665 56.8522 276.77 56.8522L283.441 56.9455C290.565 57.1322 292.51 57.6924 294.547 60.0962C296.398 62.325 297.236 65.1023 297.143 69.0932L297.05 74.3793C296.864 79.4788 296.864 79.6655 296.398 81.1475C295.373 84.3915 291.578 88.1023 286.211 90.8796C281.578 93.2951 276.677 94.4971 271.578 94.4971C253.521 94.4971 238.888 79.9456 238.888 61.9516C238.888 43.9577 253.521 29.5929 271.485 29.5929L271.496 29.6162ZM271.485 23.7583C250.297 23.7583 233.067 40.8887 233.067 61.9516C233.067 83.0146 250.343 100.332 271.578 100.332C277.62 100.332 283.452 98.8964 288.889 96.0607C295.653 92.56 300.414 87.7523 301.939 82.8979C302.626 80.6807 302.661 79.8989 302.847 74.8344V74.4844L302.952 69.1982C303.08 63.8304 301.823 59.7462 299.006 56.3621C298.389 55.6386 297.76 55.0084 297.108 54.4833C299.53 51.6827 300.996 48.0419 300.996 44.0627C300.996 40.0835 299.413 34.3306 291.893 29.5812L291.846 29.5579L291.799 29.5346C285.687 25.8237 278.47 23.77 271.461 23.77L271.485 23.7583Z" fill="#FFDC00"/>
<path d="M379.195 87.2957C372.641 87.2957 369.346 83.3865 366.995 78.7655H351.791C349.66 83.0481 346.226 87.2957 339.369 87.2957C332.081 87.2957 326.365 81.5311 326.365 74.1795C326.365 72.0207 326.912 69.7335 327.937 67.5514L347.285 26.4874C349.509 21.6914 354.107 18.6924 359.265 18.6924C364.422 18.6924 369.09 21.633 371.43 26.5691L390.86 68.0648C391.827 69.9319 392.362 72.1374 392.362 74.2728C392.362 81.4494 386.448 87.2957 379.172 87.2957H379.195Z" fill="#9CC43F"/>
<path d="M359.276 21.6099C363.443 21.6099 366.959 23.9321 368.81 27.818L388.252 69.3487C389.09 70.924 389.451 72.6861 389.451 74.2614C389.451 79.8277 384.817 84.367 379.171 84.367C374.445 84.367 371.674 82.1382 368.798 75.8368H349.904C347.308 81.8581 344.258 84.367 339.345 84.367C333.699 84.367 329.252 79.921 329.252 74.1681C329.252 72.406 329.717 70.5506 330.544 68.7886L349.892 27.7129C351.65 23.9088 355.166 21.5983 359.241 21.5983L359.276 21.6099ZM356.097 61.0986H362.396L359.252 53.6769L356.109 61.0986H356.097ZM359.252 15.7637C352.942 15.7637 347.331 19.4045 344.619 25.2624L325.282 66.303C324.071 68.8586 323.431 71.5892 323.431 74.1681C323.431 83.1534 330.416 90.2016 339.345 90.2016C346.865 90.2016 350.998 85.989 353.501 81.6714H365.236C367.914 86.2807 371.895 90.2016 379.16 90.2016C388.042 90.2016 395.26 83.0484 395.26 74.2614C395.26 71.6359 394.631 69.0453 393.456 66.7581L374.061 25.3324C371.208 19.3345 365.678 15.7637 359.252 15.7637V15.7637Z" fill="#FFDC00"/>
<path d="M434.841 86.8299C430.196 86.8299 427.099 86.1881 424.003 82.8273C422.489 81.2053 421.29 78.8948 420.801 76.6543L420.766 76.5143V76.3743C420.638 75.5224 420.545 74.7056 420.545 70.5397V32.5447C420.661 24.7613 426.284 19.1484 433.921 19.1484H442.629C449.137 19.1484 451.698 19.3235 454.562 19.9536C464.469 22.3225 471.105 30.9227 471.105 41.3433C471.105 44.7274 470.546 47.1312 468.916 50.3052C473.2 54.9613 474.993 59.5006 474.993 65.5452C474.993 71.5899 472.514 77.2611 467.834 81.5204C463.002 86.013 459.242 86.8182 451.058 86.8182H434.853L434.841 86.8299Z" fill="#9CC43F"/>
<path d="M442.63 22.066C449.207 22.066 451.431 22.2527 453.934 22.8128C462.456 24.8549 468.195 32.2649 468.195 41.3552C468.195 44.8793 467.543 47.0148 465.32 50.8073C470.232 55.5333 472.083 59.6175 472.083 65.5455C472.083 70.925 469.953 75.651 465.878 79.3618C461.897 83.0726 459.021 83.9012 451.058 83.9012H434.853C430.406 83.9012 428.369 83.2477 426.145 80.8438C424.946 79.5485 424.015 77.6931 423.642 76.0244C423.549 75.2776 423.456 74.5424 423.456 70.5516V32.545C423.549 26.4303 427.903 22.066 433.922 22.066H442.63V22.066ZM443.747 45.9879H446.157C449.033 45.9879 449.952 45.3344 449.952 43.6657C449.952 41.9037 448.846 41.2502 445.971 41.2502H443.747V45.9762V45.9879ZM443.747 64.892H447.17C450.686 64.892 451.617 64.3319 451.617 62.4765C451.617 60.6211 450.325 59.8859 447.077 59.8859H443.747V64.892ZM442.63 16.2197H433.922C424.783 16.2197 417.775 23.1979 417.635 32.4399V70.5632C417.635 74.6125 417.728 75.6394 417.868 76.7479L417.903 77.028L417.961 77.2964C418.578 80.0503 419.998 82.7926 421.884 84.823C425.656 88.9189 429.649 89.7474 434.853 89.7474H451.058C459.499 89.7474 464.214 88.8722 469.813 83.6678C475.099 78.8367 477.904 72.582 477.904 65.5572C477.904 59.4542 476.216 54.5648 472.363 49.8504C473.562 47.0498 474.016 44.5526 474.016 41.3669C474.016 29.5693 466.495 19.8255 455.284 17.1533H455.238L455.191 17.1299C452.083 16.4414 449.382 16.2547 442.63 16.2547V16.2197Z" fill="#FFDC00"/>
<path d="M505.879 78.4643C496.752 78.4643 488.009 73.995 482.514 66.5267C478.346 60.8321 476.949 55.9311 476.949 47.0858V25.2994C476.949 19.3364 477.322 16.9792 479.673 13.8869C482.246 10.6895 486.204 8.75244 490.046 8.75244C493.539 8.75244 497.217 10.3395 499.651 12.9067C502.619 16.0224 503.236 19.4881 503.236 23.724V48.1127C503.236 52.3369 505.227 52.3369 505.879 52.3369C506.531 52.3369 508.522 52.337 508.522 48.3928V23.724C508.522 18.8113 508.941 16.6758 511.42 13.7002C513.947 10.5728 517.637 8.75244 521.525 8.75244C525.414 8.75244 529.314 10.6195 531.724 13.5135C534.378 16.6758 534.809 19.5231 534.809 25.1127V47.0858C534.809 56.0828 532.515 62.8509 527.591 68.4055C522.038 74.7885 514.11 78.4643 505.879 78.4643Z" fill="#9CC43F"/>
<path d="M521.525 11.6686C524.494 11.6686 527.637 13.1506 529.488 15.3794C531.432 17.7016 531.898 19.557 531.898 25.1115V47.0847C531.898 55.4281 529.861 61.4495 525.414 66.4672C520.419 72.2201 513.19 75.5575 505.879 75.5575C497.637 75.5575 489.767 71.4733 484.854 64.7985C481.059 59.6057 479.848 55.2531 479.848 47.0963V25.2982C479.848 19.452 480.221 17.97 481.978 15.6595C483.923 13.2439 487.077 11.6686 490.034 11.6686C492.817 11.6686 495.681 12.9639 497.532 14.9126C499.569 17.0481 500.314 19.3586 500.314 23.7229V48.1115C500.314 52.5575 502.351 55.2531 505.867 55.2531C509.383 55.2531 511.42 52.6625 511.42 48.3916V23.7229C511.42 19.1836 511.793 17.7949 513.644 15.5661C515.588 13.1506 518.464 11.6686 521.514 11.6686H521.525ZM521.514 5.83398C516.752 5.83398 512.247 8.0278 509.15 11.8553C507.101 14.3292 506.193 16.488 505.832 19.2536C505.378 16.3946 504.272 13.5357 501.734 10.8751C498.731 7.7244 494.354 5.83398 490.034 5.83398C485.331 5.83398 480.512 8.19117 477.45 11.9837L477.392 12.0537L477.345 12.1237C474.353 16.0679 474.027 19.3119 474.027 25.2982V47.0847C474.027 56.525 475.634 62.0563 480.151 68.2409C486.204 76.4677 495.809 81.3805 505.867 81.3805C514.936 81.3805 523.644 77.3429 529.768 70.3181C535.181 64.2034 537.707 56.8284 537.707 47.0847V25.1115C537.707 18.8918 537.16 15.4728 533.935 11.6219C530.967 8.0628 526.205 5.83398 521.514 5.83398V5.83398Z" fill="#FFDC00"/>
<path d="M571.805 88.4058C552.177 88.4058 536.204 72.5006 536.204 52.943C536.204 33.3854 552.13 17.667 571.712 17.667C578.196 17.667 584.878 19.5574 590.536 22.9998C595.717 26.2672 598.325 30.3164 598.325 35.0425C598.325 39.7685 595.891 43.6077 592.271 45.9765C594.134 46.5716 595.6 47.5518 596.986 49.1972C599.337 52.0212 600.374 55.4986 600.269 60.1429L600.176 65.4057V65.7091C599.978 70.7502 599.966 71.1703 599.396 73.0024C598.115 77.0633 593.773 81.3459 587.766 84.4616C582.748 87.0755 577.369 88.4058 571.805 88.4058V88.4058ZM571.339 43.6193C566.624 43.6193 562.491 47.9369 562.491 52.8497C562.491 55.1602 563.341 57.2723 564.75 58.8943C564.366 57.7857 564.168 56.5721 564.168 55.2535C564.168 48.8588 568.731 45.008 576.392 44.9146C574.447 44.0511 572.759 43.6077 571.339 43.6077V43.6193Z" fill="#9CC43F"/>
<path d="M571.712 20.5845C577.731 20.5845 583.843 22.3466 589.035 25.4972C593.296 28.1812 595.426 31.3435 595.426 35.0427C595.426 40.6089 590.7 45.2416 585.053 45.2416C584.122 45.2416 582.923 45.0548 582.364 44.7748L577.824 42.3593C575.6 41.344 573.377 40.6906 571.34 40.6906C565.041 40.6906 559.581 46.3501 559.581 52.8382C559.581 59.3263 565.041 64.9859 571.712 64.9859C574.308 64.9859 575.787 64.4257 578.755 62.6637H575.787C570.327 62.6637 567.079 59.8864 567.079 55.2421C567.079 50.5977 570.385 47.8205 576.66 47.8205C576.765 47.8205 576.881 47.8205 576.986 47.8205L583.656 47.9138C590.781 48.1005 592.725 48.6606 594.763 51.0645C596.614 53.2933 597.452 56.0706 597.359 60.0615L597.266 65.3476C597.079 70.4471 597.079 70.6338 596.614 72.1158C595.589 75.3598 591.794 79.0706 586.427 81.8479C581.794 84.2634 576.893 85.4653 571.794 85.4653C553.737 85.4653 539.104 70.9138 539.104 52.9199C539.104 34.926 553.737 20.5612 571.7 20.5612L571.712 20.5845ZM571.7 14.7266C550.512 14.7266 533.283 31.857 533.283 52.9199C533.283 73.9828 550.559 91.2999 571.794 91.2999C577.836 91.2999 583.668 89.8646 589.105 87.029C595.869 83.5283 600.63 78.7205 602.155 73.8661C602.842 71.649 602.877 70.8672 603.063 65.8027V65.4526L603.168 60.1665C603.296 54.7986 602.039 50.7144 599.221 47.3303C598.604 46.6069 597.976 45.9767 597.324 45.4516C599.745 42.651 601.212 39.0102 601.212 35.031C601.212 31.0518 599.629 25.2989 592.108 20.5495L592.062 20.5262L592.015 20.5028C585.903 16.792 578.685 14.7382 571.677 14.7382L571.7 14.7266Z" fill="#FFDC00"/>
<path d="M21.8282 85.5474C17.5906 85.5474 13.6907 83.2252 11.8978 79.6194C10.6754 77.0755 10.4775 75.7102 10.4775 69.9223V34.2145C10.4775 28.3916 11.8745 25.2059 15.4486 22.8604C16.7408 21.9619 18.7315 21.3084 20.8852 21.0983C21.7118 21.005 23.5861 20.9116 26.3685 20.9116H38.5923C45.1582 20.9116 46.823 21.0633 49.4657 22.6503C52.4925 24.4241 54.3785 27.7965 54.3785 31.4373C54.3785 34.5296 52.9582 37.8203 50.7579 39.8157C48.6042 41.6595 46.3108 42.348 42.2944 42.348H33.1789V44.2734H38.3129C42.0266 44.2734 43.703 44.5885 45.4842 45.6387C48.0337 47.1907 49.489 49.7813 49.489 52.7686C49.489 58.2881 45.7869 61.4505 39.3374 61.4505H33.1905V70.0157C33.1905 75.9903 33.0276 77.5306 31.3512 80.2729C29.3604 83.5286 25.7166 85.5591 21.8399 85.5591L21.8282 85.5474Z" fill="#E30613"/>
<path d="M38.5931 22.0662C45.2638 22.0662 46.556 22.2529 48.8727 23.6415C51.5619 25.2169 53.2267 28.1808 53.2267 31.4249C53.2267 34.2021 51.9345 37.1778 49.9903 38.9398C48.0461 40.6085 46.0088 41.1687 42.3068 41.1687H32.0271V45.4279H38.3253C41.8411 45.4279 43.3312 45.708 44.9029 46.6299C47.0333 47.9251 48.3255 50.154 48.3255 52.7445C48.3255 57.5639 45.1823 60.2595 39.3381 60.2595H32.0271V69.9916C32.0271 76.0129 31.8409 77.2265 30.3624 79.6304C28.6045 82.501 25.3564 84.3564 21.8406 84.3564C18.0454 84.3564 14.5296 82.221 12.9463 79.0703C11.8404 76.7481 11.6541 75.5462 11.6541 69.8866V34.2138C11.6541 28.741 12.8532 25.9637 16.1012 23.8282C17.3003 22.9997 19.1514 22.4396 21.0141 22.2529C21.8523 22.1595 23.7033 22.0662 26.3809 22.0662H38.6047H38.5931ZM38.6047 19.7323H26.3809C23.9827 19.7323 21.8755 19.8023 20.7579 19.9307C18.4529 20.1641 16.2642 20.8876 14.7857 21.9028C10.8741 24.47 9.3374 27.9358 9.3374 34.2021V69.8983C9.3374 75.4878 9.48874 77.2149 10.8625 80.0855C12.8765 84.1114 17.1839 86.6903 21.8523 86.6903C26.1248 86.6903 30.1528 84.4498 32.3531 80.844C34.1808 77.8683 34.3671 76.1296 34.3671 69.98V62.5817H39.3498C46.4279 62.5817 50.6655 58.9059 50.6655 52.7329C50.6655 49.3838 48.9658 46.3498 46.1252 44.6228C45.1823 44.0626 44.2626 43.7009 43.2614 43.4675C46.4861 43.3858 49.059 42.814 51.527 40.6902L51.5503 40.6669L51.5736 40.6436C54.0067 38.4381 55.5783 34.8089 55.5783 31.4015C55.5783 27.3523 53.4712 23.5948 50.0718 21.5994C47.2079 19.884 45.3453 19.709 38.6163 19.709L38.6047 19.7323Z" fill="#1D1D1B"/>
<path d="M69.3395 92.7686C66.2428 92.7686 62.8434 91.3099 60.8876 89.1394C58.7571 86.7939 57.9888 84.3551 57.9888 79.8274V41.529C57.9888 36.3712 58.4312 34.0607 60.8876 31.3768C62.9598 28.9846 65.9401 27.666 69.2463 27.666C72.5526 27.666 75.6027 28.9846 77.6982 31.2951C79.9916 33.909 80.6901 36.2896 80.6901 41.5407V79.8274C80.6901 84.0517 79.8519 86.6889 77.7913 88.9527C75.6493 91.3099 72.4129 92.7686 69.3395 92.7686V92.7686Z" fill="#E30613"/>
<path d="M69.245 28.8343C72.202 28.8343 74.9843 30.0362 76.8354 32.0783C78.8727 34.4005 79.5246 36.5243 79.5246 41.5304V79.8171C79.5246 83.7146 78.7795 86.1185 76.9285 88.1606C74.9843 90.296 72.0157 91.5913 69.3381 91.5913C66.6605 91.5913 63.5056 90.296 61.7477 88.3473C59.8035 86.2118 59.1516 84.088 59.1516 79.8171V41.5304C59.1516 36.3376 59.6173 34.4822 61.7477 32.1717C63.5987 30.0362 66.288 28.8343 69.245 28.8343V28.8343ZM69.245 26.5004C65.6011 26.5004 62.3298 27.9591 60.0131 30.6197C57.2656 33.6187 56.8232 36.3026 56.8232 41.5421V79.8287C56.8232 84.6948 57.6614 87.3437 60.0247 89.9343C62.225 92.3615 65.8805 93.9368 69.3381 93.9368C72.7957 93.9368 76.2998 92.3265 78.6515 89.7476C80.8983 87.2737 81.8529 84.3097 81.8529 79.8287V41.5304C81.8529 36.0225 81.0613 33.3386 78.5816 30.5263C76.2416 27.9474 72.8539 26.4888 69.245 26.4888V26.5004Z" fill="#1D1D1B"/>
<path d="M129.619 104.509C125.952 104.509 122.657 102.794 120.352 99.6782L112.948 89.9577L105.544 99.5965C102.82 103.039 100.049 104.498 96.2889 104.498C90.1304 104.498 84.9382 99.3398 84.9382 93.2251C84.9382 90.4362 85.9045 87.6356 87.6042 85.5351L98.6173 70.9719L90.5379 60.2712C87.3946 56.047 86.2305 53.4681 86.2305 50.7608C86.2305 44.5995 91.5158 39.395 97.7674 39.395C101.435 39.395 104.636 41.0987 107.29 44.4711L112.972 52.0094L118.245 45.393C121.621 41.017 124.299 39.395 128.141 39.395C134.392 39.395 139.678 44.5528 139.678 50.6675C139.678 53.153 138.479 56.0937 136.208 59.151L127.291 70.9719L138.339 85.7568C139.922 87.8689 140.795 90.5178 140.795 93.2251C140.795 99.4448 135.789 104.498 129.631 104.498L129.619 104.509Z" fill="#E30613"/>
<path d="M128.141 40.5731C133.787 40.5731 138.513 45.2057 138.513 50.6786C138.513 52.9074 137.407 55.5913 135.277 58.462L125.836 70.983L137.407 86.4681C138.793 88.3235 139.631 90.7273 139.631 93.2362C139.631 98.8024 135.184 103.342 129.631 103.342C126.394 103.342 123.426 101.86 121.295 98.9891L112.96 88.0434L104.624 98.8958C102.121 102.046 99.7115 103.342 96.2889 103.342C90.7358 103.342 86.1023 98.7091 86.1023 93.2362C86.1023 90.8207 86.9405 88.2301 88.5122 86.2814L100.084 70.983L91.4692 59.5822C88.5122 55.5913 87.3946 53.1875 87.3946 50.7719C87.3946 45.2991 92.2143 40.5731 97.7674 40.5731C101.097 40.5731 103.972 42.1484 106.382 45.2057L112.96 53.9226L119.165 46.1393C122.308 42.055 124.718 40.5731 128.152 40.5731H128.141ZM128.152 38.2392C123.309 38.2392 120.329 40.8298 117.325 44.704L113.018 50.1185L108.245 43.7938C105.334 40.0946 101.819 38.2275 97.779 38.2275C90.8987 38.2275 85.0779 43.9688 85.0779 50.7603C85.0779 53.7476 86.3119 56.5132 89.6182 60.9592L97.1736 70.9714L86.6844 84.8344C84.845 87.1332 83.7856 90.1905 83.7856 93.2245C83.7856 99.9693 89.5134 105.664 96.3005 105.664C100.457 105.664 103.495 104.065 106.452 100.331L112.96 91.8709L119.456 100.389C121.97 103.785 125.591 105.664 129.642 105.664C136.441 105.664 141.971 100.086 141.971 93.2245C141.971 90.2722 141.016 87.3666 139.282 85.0561L128.758 70.983L137.14 59.8623C139.573 56.5832 140.853 53.4092 140.853 50.6669C140.853 43.9221 135.033 38.2275 128.152 38.2275V38.2392Z" fill="#1D1D1B"/>
<path d="M156.478 92.7686C153.382 92.7686 149.982 91.3099 148.026 89.1394C145.896 86.7939 145.128 84.3551 145.128 79.8274V41.529C145.128 36.3712 145.57 34.0607 148.026 31.3768C150.099 28.9846 153.079 27.666 156.385 27.666C159.691 27.666 162.742 28.9846 164.837 31.2951C167.131 33.909 167.829 36.2896 167.829 41.5407V79.8274C167.829 84.0517 166.991 86.6889 164.93 88.9527C162.788 91.3099 159.552 92.7686 156.478 92.7686V92.7686Z" fill="#E30613"/>
<path d="M156.384 28.8343C159.341 28.8343 162.123 30.0362 163.975 32.0783C166.012 34.4005 166.664 36.5243 166.664 41.5304V79.8171C166.664 83.7146 165.919 86.1185 164.068 88.1606C162.123 90.296 159.155 91.5913 156.477 91.5913C153.8 91.5913 150.645 90.296 148.887 88.3473C146.943 86.2118 146.291 84.088 146.291 79.8171V41.5304C146.291 36.3376 146.756 34.4822 148.887 32.1717C150.738 30.0362 153.427 28.8343 156.384 28.8343V28.8343ZM156.384 26.5004C152.74 26.5004 149.469 27.9591 147.152 30.6197C144.405 33.6187 143.962 36.3026 143.962 41.5421V79.8287C143.962 84.6948 144.801 87.3437 147.164 89.9343C149.364 92.3615 153.02 93.9368 156.477 93.9368C159.935 93.9368 163.439 92.3265 165.791 89.7476C168.037 87.2737 168.992 84.3097 168.992 79.8287V41.5304C168.992 36.0225 168.2 33.3386 165.721 30.5263C163.381 27.9474 159.993 26.4888 156.384 26.4888V26.5004Z" fill="#1D1D1B"/>
<path d="M220.833 85.5468C217.225 85.5468 214.209 83.9948 211.858 80.9141L197.829 62.9202V72.5123C197.829 76.7832 197.201 78.9421 195.257 81.3926C193.033 84.0415 189.843 85.5468 186.479 85.5468C183.114 85.5468 179.564 83.8898 177.41 81.1125C175.559 78.5453 175.035 76.4332 175.035 71.6838V32.5453C175.035 25.2987 179.785 20.4326 186.851 20.4326C190.216 20.4326 192.835 21.8213 195.35 24.9486L209.483 42.3357V34.1206C209.483 30.2114 209.785 27.9126 211.543 25.392C213.499 22.393 217.155 20.4443 220.833 20.4443C224.14 20.4443 227.306 21.9496 229.507 24.5635C231.462 27.0374 232.184 29.4529 232.184 33.4788V71.2987C232.184 76.5265 231.637 78.767 229.728 81.2759C227.679 83.9481 224.349 85.5352 220.833 85.5352V85.5468Z" fill="#E30613"/>
<path d="M220.832 21.6111C223.882 21.6111 226.665 22.9998 228.609 25.3219C230.367 27.5508 231.019 29.6746 231.019 33.4787V71.2986C231.019 76.2114 230.553 78.2535 228.795 80.5757C226.944 82.9912 223.976 84.3798 220.832 84.3798C217.689 84.3798 214.907 82.9912 212.776 80.2023L196.664 59.5244V72.5006C196.664 76.5848 196.105 78.4285 194.347 80.6574C192.403 82.9795 189.528 84.3682 186.478 84.3682C183.427 84.3682 180.273 82.8862 178.328 80.3773C176.664 78.0551 176.198 76.1997 176.198 71.6604V32.5452C176.198 25.9638 180.459 21.5995 186.85 21.5995C189.819 21.5995 192.124 22.8014 194.441 25.6837L210.646 45.6147V34.1205C210.646 30.0363 211.018 28.1926 212.497 26.0571C214.255 23.3732 217.491 21.6111 220.832 21.6111V21.6111ZM220.832 19.2773C216.723 19.2773 212.8 21.3778 210.564 24.7502C208.655 27.5158 208.317 29.978 208.317 34.1205V39.0566L196.245 24.2017C193.533 20.8293 190.541 19.2656 186.85 19.2656C179.213 19.2656 173.87 24.7268 173.87 32.5452V71.6721C173.87 76.6548 174.475 79.012 176.442 81.7543L176.466 81.7893L176.489 81.8243C178.864 84.8816 182.601 86.7137 186.478 86.7137C190.354 86.7137 193.707 85.0566 196.129 82.1743L196.152 82.151L196.175 82.1277C198.306 79.4321 198.992 77.0982 198.992 72.5239V66.3276L210.937 81.6609C213.51 85.0216 216.839 86.7253 220.832 86.7253C224.825 86.7253 228.376 84.9633 230.646 82.011C232.951 78.977 233.347 76.1414 233.347 71.3103V33.4787C233.347 29.1611 232.556 26.5589 230.437 23.875L230.413 23.8516L230.39 23.8283C227.969 20.946 224.488 19.289 220.832 19.289V19.2773Z" fill="#1D1D1B"/>
<path d="M271.59 95.6882C252.928 95.6882 237.736 80.5649 237.736 61.9758C237.736 43.3868 252.881 28.4502 271.497 28.4502C277.655 28.4502 284.023 30.2589 289.413 33.538C294.035 36.4553 296.363 40.0027 296.363 44.0869C296.363 50.2483 291.078 55.4528 284.826 55.4528C283.848 55.4528 282.428 55.266 281.625 54.8693L277.061 52.4421C274.861 51.4385 272.847 50.9134 271.124 50.9134C265.478 50.9134 260.53 56.0479 260.53 61.8942C260.53 67.7404 265.455 72.8749 271.497 72.8749C272.183 72.8749 272.777 72.8399 273.359 72.7349C268.586 72.023 265.699 68.9307 265.699 64.3097C265.699 61.1007 267.096 55.7211 276.444 55.7211L283.464 55.8145C290.461 56.0012 293.022 56.5147 295.444 59.3853C297.504 61.8592 298.412 64.9632 298.307 69.1641L298.214 74.4386V74.707C298.028 79.6314 298.016 79.9231 297.516 81.5334C296.375 85.1626 292.359 89.0601 286.747 91.9541C281.974 94.4396 276.875 95.6999 271.578 95.6999L271.59 95.6882Z" fill="#E30613"/>
<path d="M271.497 29.6174C277.516 29.6174 283.628 31.3795 288.82 34.5302C293.081 37.2141 295.211 40.3764 295.211 44.0756C295.211 49.6418 290.485 54.2745 284.838 54.2745C283.919 54.2745 282.708 54.0878 282.149 53.8077L277.609 51.3922C275.385 50.377 273.162 49.7235 271.124 49.7235C264.826 49.7235 259.366 55.3831 259.366 61.8711C259.366 68.3592 264.826 74.0188 271.497 74.0188C274.093 74.0188 275.571 73.4587 278.54 71.6966H275.571C270.112 71.6966 266.863 68.9193 266.863 64.275C266.863 59.6307 270.17 56.8534 276.445 56.8534C276.549 56.8534 276.666 56.8534 276.771 56.8534L283.441 56.9467C290.566 57.1334 292.51 57.6936 294.547 60.0974C296.399 62.3262 297.237 65.1035 297.144 69.0944L297.05 74.3805C296.864 79.48 296.864 79.6667 296.399 81.1487C295.374 84.3927 291.579 88.1035 286.212 90.8808C281.579 93.2963 276.677 94.4983 271.578 94.4983C253.522 94.4983 238.888 79.9467 238.888 61.9528C238.888 43.9589 253.522 29.5941 271.485 29.5941L271.497 29.6174ZM271.485 27.2603C252.23 27.2603 236.56 42.827 236.56 61.9528C236.56 81.0787 252.265 96.8321 271.578 96.8321C277.062 96.8321 282.335 95.5252 287.283 92.9579C293.15 89.9239 297.388 85.7697 298.622 81.8488C299.169 80.0868 299.181 79.6784 299.367 74.7073V74.4622L299.472 69.1294C299.577 64.6484 298.576 61.2877 296.34 58.6038C294.745 56.725 293.104 55.7331 290.531 55.208C294.641 53.1076 297.528 48.8483 297.528 44.0639C297.528 39.5479 295.013 35.6738 290.054 32.5347C284.454 29.1273 277.865 27.2603 271.497 27.2603H271.485ZM266.526 70.3196C263.627 68.6159 261.683 65.4536 261.683 61.8595C261.683 56.6317 266.095 52.0457 271.113 52.0457C272.649 52.0457 274.489 52.5241 276.561 53.481L278.563 54.5429L276.782 54.5195H276.421C265.676 54.5195 264.512 61.3344 264.512 64.275C264.512 66.6789 265.222 68.7326 266.514 70.3313L266.526 70.3196Z" fill="#1D1D1B"/>
<path d="M379.194 85.5468C374.107 85.5468 371.045 83.2247 368.088 77.0166H350.695C347.96 82.9913 344.549 85.5468 339.38 85.5468C333.07 85.5468 328.122 80.5524 328.122 74.181C328.122 72.2789 328.611 70.2485 329.531 68.2997L348.879 27.2241C350.847 22.9765 354.735 20.4326 359.287 20.4326C363.839 20.4326 367.832 22.9998 369.881 27.3058L389.334 68.8482C390.172 70.4352 390.65 72.3723 390.65 74.2627C390.65 80.4824 385.516 85.5352 379.206 85.5352L379.194 85.5468ZM360.672 59.9446L359.287 56.6772L357.902 59.9446H360.672Z" fill="#E30613"/>
<path d="M359.276 21.6111C363.444 21.6111 366.959 23.9333 368.81 27.8192L388.252 69.3499C389.09 70.9252 389.451 72.6873 389.451 74.2626C389.451 79.8288 384.818 84.3682 379.172 84.3682C374.445 84.3682 371.674 82.1393 368.799 75.838H349.904C347.308 81.8593 344.258 84.3682 339.345 84.3682C333.699 84.3682 329.252 79.9222 329.252 74.1693C329.252 72.4072 329.718 70.5518 330.544 68.7898L349.893 27.7141C351.651 23.91 355.166 21.5995 359.241 21.5995L359.276 21.6111ZM356.098 61.0998H362.396L359.253 53.6781L356.109 61.0998H356.098ZM359.253 19.2656C354.317 19.2656 349.916 22.1246 347.786 26.7339L328.437 67.7979C327.447 69.8983 326.924 72.1038 326.924 74.1693C326.924 81.1941 332.384 86.702 339.345 86.702C344.759 86.702 348.519 84.0531 351.394 78.1718H367.32C369.893 83.3413 373.06 86.702 379.16 86.702C386.11 86.702 391.768 81.1241 391.768 74.2626C391.768 72.2088 391.256 70.0967 390.324 68.3113L370.906 26.8273C368.659 22.0896 364.305 19.2773 359.264 19.2773L359.253 19.2656Z" fill="#1D1D1B"/>
<path d="M434.843 85.0796C430 85.0796 427.684 84.2394 425.285 81.6488C423.982 80.2369 422.934 78.2298 422.503 76.2927C422.387 75.3825 422.293 74.624 422.293 70.5748V32.5448C422.398 25.7883 427.288 20.8989 433.924 20.8989H442.632C448.988 20.8989 451.468 21.0623 454.18 21.6691C463.261 23.8396 469.349 31.7513 469.349 41.3551C469.349 44.8325 468.732 47.108 466.777 50.6087C471.422 55.2881 473.238 59.5474 473.238 65.557C473.238 71.2399 470.956 76.316 466.648 80.2369C462.469 84.1344 459.407 85.0796 451.049 85.0796H434.843V85.0796ZM447.16 63.7366C450.443 63.7366 450.443 63.2932 450.443 62.488C450.443 61.8812 450.443 61.0644 447.067 61.0644H444.902V63.7366H447.16ZM446.136 44.8208C448.767 44.8208 448.767 44.3074 448.767 43.6656C448.767 43.0238 448.767 42.417 445.949 42.417H444.89V44.8091H446.136V44.8208Z" fill="#E30613"/>
<path d="M442.631 22.0672C449.208 22.0672 451.432 22.2539 453.935 22.814C462.457 24.8561 468.196 32.2661 468.196 41.3564C468.196 44.8805 467.544 47.016 465.32 50.8085C470.233 55.5345 472.084 59.6187 472.084 65.5467C472.084 70.9262 469.954 75.6522 465.879 79.363C461.898 83.0738 459.022 83.9023 451.059 83.9023H434.854C430.407 83.9023 428.37 83.2489 426.146 80.845C424.947 79.5497 424.016 77.6943 423.643 76.0256C423.55 75.2788 423.457 74.5436 423.457 70.5528V32.5461C423.55 26.4315 427.904 22.0672 433.923 22.0672H442.631V22.0672ZM443.748 45.9891H446.158C449.034 45.9891 449.953 45.3356 449.953 43.6669C449.953 41.9049 448.847 41.2514 445.972 41.2514H443.748V45.9774V45.9891ZM443.748 64.8932H447.171C450.687 64.8932 451.618 64.3331 451.618 62.4777C451.618 60.6223 450.326 59.8871 447.078 59.8871H443.748V64.8932ZM442.631 19.7217H433.923C426.623 19.7217 421.245 25.0895 421.128 32.4995V70.5644C421.128 74.6953 421.222 75.4888 421.326 76.3174V76.4224L421.361 76.5274C421.839 78.6629 422.979 80.8684 424.435 82.432C427.38 85.6294 430.372 86.2362 434.842 86.2362H451.048C459.057 86.2362 462.736 85.4544 467.451 81.0667C471.991 76.9358 474.401 71.5563 474.401 65.5467C474.401 59.537 472.643 55.0911 468.208 50.4117C469.954 47.121 470.513 44.7988 470.513 41.3564C470.513 31.2042 464.063 22.8374 454.47 20.5385C451.618 19.9084 449.08 19.7333 442.631 19.7333V19.7217ZM446.077 43.6436V43.5852C446.438 43.5852 446.729 43.5969 446.95 43.6202C446.729 43.6319 446.472 43.6436 446.147 43.6436H446.065H446.077ZM446.077 62.2209H447.078C448.323 62.2209 448.941 62.3493 449.22 62.4427C448.882 62.501 448.265 62.5594 447.171 62.5594H446.077V62.2209Z" fill="#1D1D1B"/>
<path d="M505.881 76.714C497.301 76.714 489.094 72.5131 483.925 65.4883C480.014 60.1438 478.698 55.4994 478.698 47.0859V25.2995C478.698 19.2898 479.094 17.5395 481.061 14.9489C483.25 12.2416 486.766 10.5029 490.049 10.5029C493.076 10.5029 496.277 11.8799 498.396 14.1087C500.654 16.4776 501.492 19.0798 501.492 23.7241V48.1128C501.492 50.3416 502.063 54.0874 505.881 54.0874C509.7 54.0874 510.27 50.5167 510.27 48.3929V23.7241C510.27 19.2198 510.608 17.3994 512.762 14.8205C514.974 12.0899 518.163 10.5029 521.528 10.5029C524.892 10.5029 528.303 12.1249 530.387 14.6338C532.541 17.2011 533.065 19.2548 533.065 25.1128V47.0859C533.065 55.7445 530.981 61.9642 526.289 67.2386C521.051 73.2599 513.612 76.714 505.881 76.714V76.714Z" fill="#E30613"/>
<path d="M521.527 11.6698C524.496 11.6698 527.639 13.1518 529.49 15.3806C531.434 17.7028 531.9 19.5582 531.9 25.1127V47.0858C531.9 55.4293 529.863 61.4506 525.416 66.4684C520.421 72.2213 513.192 75.5587 505.881 75.5587C497.639 75.5587 489.769 71.4745 484.856 64.7997C481.061 59.6069 479.85 55.2543 479.85 47.0975V25.2994C479.85 19.4531 480.223 17.9712 481.98 15.6607C483.925 13.2451 487.079 11.6698 490.036 11.6698C492.819 11.6698 495.683 12.9651 497.534 14.9138C499.571 17.0493 500.316 19.3598 500.316 23.7241V48.1127C500.316 52.5587 502.353 55.2543 505.869 55.2543C509.385 55.2543 511.422 52.6637 511.422 48.3928V23.7241C511.422 19.1848 511.795 17.7961 513.646 15.5673C515.59 13.1518 518.466 11.6698 521.516 11.6698H521.527ZM521.516 9.33594C517.802 9.33594 514.275 11.0747 511.83 14.097C509.49 16.9093 509.094 18.9747 509.094 23.7241V48.3811C509.094 51.3801 508.011 52.9088 505.869 52.9088C503.727 52.9088 502.644 51.2868 502.644 48.1011V23.7241C502.644 18.7997 501.69 15.8824 499.222 13.3035C496.893 10.8646 493.378 9.33594 490.036 9.33594C486.369 9.33594 482.586 11.1913 480.164 14.1903L480.141 14.2137L480.118 14.237C477.859 17.2243 477.51 19.3831 477.51 25.2878V47.0742C477.51 55.7677 478.884 60.5871 482.958 66.165C488.348 73.4933 496.905 77.8692 505.858 77.8692C513.925 77.8692 521.69 74.2634 527.15 67.9854C531.958 62.5709 534.205 55.9194 534.205 47.0742V25.1127C534.205 19.4181 533.763 16.8626 531.248 13.8753C528.955 11.1213 525.125 9.33594 521.504 9.33594H521.516Z" fill="#1D1D1B"/>
<path d="M571.808 86.6565C553.146 86.6565 537.953 71.5332 537.953 52.9441C537.953 34.355 553.099 19.4185 571.714 19.4185C577.873 19.4185 584.241 21.2272 589.631 24.5062C594.253 27.4235 596.581 30.971 596.581 35.0552C596.581 41.2165 591.296 46.421 585.044 46.421C584.066 46.421 582.646 46.2343 581.843 45.8376L577.279 43.4104C575.079 42.4068 573.065 41.8817 571.342 41.8817C565.696 41.8817 560.748 47.0161 560.748 52.8624C560.748 58.7087 565.672 63.8431 571.714 63.8431C572.401 63.8431 572.995 63.8081 573.577 63.7031C568.804 62.9913 565.917 59.899 565.917 55.2779C565.917 52.0689 567.314 46.6894 576.662 46.6894L583.682 46.7828C590.679 46.9695 593.24 47.4829 595.661 50.3535C597.722 52.8274 598.63 55.9314 598.525 60.1323L598.432 65.4068V65.6752C598.246 70.5996 598.234 70.903 597.734 72.5017C596.593 76.1308 592.576 80.0283 586.965 82.9223C582.192 85.4079 577.093 86.6681 571.796 86.6681L571.808 86.6565Z" fill="#E30613"/>
<path d="M571.715 20.5847C577.734 20.5847 583.846 22.3468 589.038 25.4975C593.299 28.1814 595.429 31.3437 595.429 35.0429C595.429 40.6091 590.703 45.2418 585.056 45.2418C584.125 45.2418 582.926 45.0551 582.367 44.775L577.827 42.3595C575.603 41.3442 573.38 40.6908 571.342 40.6908C565.044 40.6908 559.584 46.3503 559.584 52.8384C559.584 59.3265 565.044 64.9861 571.715 64.9861C574.311 64.9861 575.79 64.426 578.758 62.6639H575.79C570.33 62.6639 567.081 59.8866 567.081 55.2423C567.081 50.5979 570.388 47.8207 576.663 47.8207C576.767 47.8207 576.884 47.8207 576.989 47.8207L583.659 47.914C590.784 48.1007 592.728 48.6608 594.766 51.0647C596.617 53.2935 597.455 56.0708 597.362 60.0617L597.268 65.3478C597.082 70.4473 597.082 70.634 596.617 72.116C595.592 75.36 591.797 79.0708 586.43 81.8481C581.797 84.2636 576.895 85.4655 571.796 85.4655C553.74 85.4655 539.106 70.914 539.106 52.9201C539.106 34.9262 553.74 20.5614 571.703 20.5614L571.715 20.5847ZM571.703 18.2275C552.448 18.2275 536.778 33.7943 536.778 52.9201C536.778 72.0459 552.483 87.7994 571.796 87.7994C577.28 87.7994 582.553 86.4924 587.501 83.9252C593.369 80.8912 597.606 76.737 598.84 72.8161C599.387 71.0541 599.411 70.6456 599.585 65.6746V65.4295L599.69 60.0967C599.795 55.6157 598.794 52.2666 596.558 49.571C594.963 47.6923 593.322 46.7004 590.749 46.1753C594.859 44.0748 597.746 39.8156 597.746 35.0312C597.746 30.5152 595.231 26.641 590.272 23.502C584.672 20.0946 578.083 18.2275 571.715 18.2275H571.703ZM566.744 61.2869C563.845 59.5832 561.901 56.4209 561.901 52.8268C561.901 47.5989 566.313 43.0129 571.331 43.0129C572.867 43.0129 574.695 43.4914 576.779 44.4483L578.781 45.5102L577 45.4868H576.639C565.894 45.4868 564.73 52.3016 564.73 55.2423C564.73 57.6461 565.44 59.6999 566.732 61.2986L566.744 61.2869Z" fill="#1D1D1B"/>
</svg>
